# xmcd
#
# Track frame offsets:
#	150
#	17862
#	35990
#	47342
#	60865
#	73530
#	88440
#	101145
#	112870
#	130040
#	146772
#	162590
#	176460
#	191637
#	201170
#
# Disc length: 2925
#
# Revision: 1
# Processed by: cddbd v1.5.1PL0 Copyright (c) Steve Scherf et al.
# Submitted via: audiograbber 1.82.01
# Normalized: r0:DSETVAR1
#
DISCID=d60b6b0f
DTITLE=Various Artist - Line Dance 1 "Favourites"
DYEAR=1997
DGENRE=Country
TTITLE0=Sean Kenny - Black coffee
TTITLE1=Bobby Lee - This don't feel like dancing
TTITLE2=Sideliners - Hillbilly rock, hillbilly roll
TTITLE3=Anton and The Buzz Band - Country married RnR
TTITLE4=T.J. McCall - Country music hall of fame
TTITLE5=Watermelon Henry - Love my car
TTITLE6=Nothern Lights - Situation vacant
TTITLE7=Chris Sayer - Love kept it hold on my heart
TTITLE8=Pedro Patata - Macarena
TTITLE9=Big Al - Caravan song
TTITLE10=Simon Richmond - Let' hear it for the ladies
TTITLE11=Aaron Woolley - Louisiana
TTITLE12=Simon Dawson - Good times come around
TTITLE13=Hollywood Hillbillies - No honky tonks in heaven
TTITLE14=David Christie - Saddle up county style
EXTD=
EXTT0=
EXTT1=
EXTT2=
EXTT3=
EXTT4=
EXTT5=
EXTT6=
EXTT7=
EXTT8=
EXTT9=
EXTT10=
EXTT11=
EXTT12=
EXTT13=
EXTT14=
PLAYORDER=
